<svg xmlns="http://www.w3.org/2000/svg" xmlns:xlink="http://www.w3.org/1999/xlink" version="1.1" width="256" height="256" viewBox="0 0 256 256" xml:space="preserve">
<g style="stroke: none; stroke-width: 0; stroke-dasharray: none; stroke-linecap: butt; stroke-linejoin: miter; stroke-miterlimit: 10; fill: none; fill-rule: nonzero; opacity: 1;" transform="translate(1.4065934065934016 1.4065934065934016) scale(2.81 2.81)">
	<path d="M 45 0 C 25.463 0 9.625 15.838 9.625 35.375 c 0 8.722 3.171 16.693 8.404 22.861 L 45 90 l 26.97 -31.765 c 5.233 -6.167 8.404 -14.139 8.404 -22.861 C 80.375 15.838 64.537 0 45 0 z" style="stroke: none; stroke-width: 1; stroke-dasharray: none; stroke-linecap: butt; stroke-linejoin: miter; stroke-miterlimit: 10; fill: rgb(0,56,168); fill-rule: nonzero; opacity: 1;" transform=" matrix(1 0 0 1 0 0) " stroke-linecap="round"/>
	<circle cx="45" cy="34.16" r="28" style="stroke: none; stroke-width: 1; stroke-dasharray: none; stroke-linecap: butt; stroke-linejoin: miter; stroke-miterlimit: 10; fill: rgb(243,244,245); fill-rule: nonzero; opacity: 1;" transform="  matrix(1 0 0 1 0 0) "/>
	<path d="M 45 59.158 c -13.807 0 -25 -11.193 -25 -25 h 50 C 70 47.965 58.807 59.158 45 59.158 z" style="stroke: none; stroke-width: 1; stroke-dasharray: none; stroke-linecap: butt; stroke-linejoin: miter; stroke-miterlimit: 10; fill: rgb(206,17,38); fill-rule: nonzero; opacity: 1;" transform=" matrix(1 0 0 1 0 0) " stroke-linecap="round"/>
	<path d="M 45 9.158 c -13.807 0 -25 11.193 -25 25 h 50 C 70 20.351 58.807 9.158 45 9.158 z" style="stroke: none; stroke-width: 1; stroke-dasharray: none; stroke-linecap: butt; stroke-linejoin: miter; stroke-miterlimit: 10; fill: rgb(0,56,168); fill-rule: nonzero; opacity: 1;" transform=" matrix(1 0 0 1 0 0) " stroke-linecap="round"/>
	<path d="M 29.061 14.899 C 23.527 19.484 20 26.409 20 34.158 c 0 7.72 3.501 14.62 8.999 19.206 l 33.203 -19.238 L 29.061 14.899 z" style="stroke: none; stroke-width: 1; stroke-dasharray: none; stroke-linecap: butt; stroke-linejoin: miter; stroke-miterlimit: 10; fill: rgb(243,244,245); fill-rule: nonzero; opacity: 1;" transform=" matrix(1 0 0 1 0 0) " stroke-linecap="round"/>
	<path d="M 41.68 33.894 c -0.005 -0.078 -0.012 -0.154 -0.022 -0.231 l 3.238 -0.425 l -0.385 -0.385 l -2.889 0.575 c -0.093 -0.472 -0.279 -0.911 -0.537 -1.297 l 2.449 -1.636 V 29.95 l -2.59 1.989 c -0.047 -0.061 -0.096 -0.121 -0.147 -0.179 l 2.67 -2.339 v -0.667 H 42.8 l -2.339 2.67 c -0.058 -0.051 -0.118 -0.1 -0.179 -0.147 l 1.989 -2.59 h -0.544 l -1.636 2.449 c -0.386 -0.258 -0.825 -0.444 -1.297 -0.537 l 0.575 -2.889 l -0.385 -0.385 l -0.425 3.238 c -0.076 -0.01 -0.153 -0.017 -0.231 -0.022 l 0.234 -3.542 l -0.472 -0.472 l -0.472 0.472 l 0.234 3.542 c -0.078 0.005 -0.154 0.012 -0.231 0.022 l -0.425 -3.238 l -0.385 0.385 l 0.575 2.889 c -0.472 0.093 -0.911 0.279 -1.297 0.537 l -1.636 -2.449 h -0.544 l 1.989 2.59 c -0.062 0.047 -0.121 0.096 -0.179 0.147 l -2.339 -2.67 h -0.667 v 0.667 l 2.67 2.339 c -0.051 0.058 -0.1 0.118 -0.147 0.179 l -2.59 -1.989 v 0.544 l 2.449 1.636 c -0.258 0.386 -0.444 0.825 -0.537 1.297 l -2.889 -0.575 l -0.385 0.385 l 3.238 0.425 c -0.01 0.076 -0.017 0.153 -0.022 0.231 l -3.542 -0.234 l -0.472 0.472 l 0.472 0.472 l 3.542 -0.234 c 0.005 0.078 0.012 0.154 0.022 0.231 l -3.238 0.425 l 0.385 0.385 l 2.889 -0.575 c 0.093 0.472 0.279 0.911 0.537 1.297 l -2.449 1.636 v 0.544 l 2.59 -1.989 c 0.047 0.062 0.096 0.121 0.147 0.179 l -2.67 2.339 v 0.667 h 0.667 l 2.339 -2.67 c 0.058 0.051 0.118 0.1 0.179 0.147 l -1.989 2.59 h 0.544 l 1.636 -2.449 c 0.386 0.258 0.825 0.444 1.297 0.537 l -0.575 2.889 l 0.385 0.385 l 0.425 -3.238 c 0.076 0.01 0.153 0.017 0.231 0.022 l -0.234 3.542 l 0.472 0.472 l 0.472 -0.472 l -0.234 -3.542 c 0.078 -0.005 0.154 -0.012 0.231 -0.022 l 0.425 3.238 l 0.385 -0.385 l -0.575 -2.889 c 0.472 -0.093 0.911 -0.279 1.297 -0.537 l 1.636 2.449 h 0.544 l -1.989 -2.59 c 0.062 -0.047 0.121 -0.096 0.179 -0.147 l 2.339 2.67 h 0.667 v -0.667 l -2.67 -2.339 c 0.051 -0.058 0.1 -0.118 0.147 -0.179 l 2.59 1.989 v -0.544 l -2.449 -1.636 c 0.258 -0.386 0.444 -0.825 0.537 -1.297 l 2.889 0.575 l 0.385 -0.385 l -3.238 -0.425 c 0.01 -0.076 0.017 -0.153 0.022 -0.231 l 3.542 0.233 l 0.472 -0.472 l -0.472 -0.471 L 41.68 33.894 z" style="stroke: none; stroke-width: 1; stroke-dasharray: none; stroke-linecap: butt; stroke-linejoin: miter; stroke-miterlimit: 10; fill: rgb(252,209,22); fill-rule: nonzero; opacity: 1;" transform=" matrix(1 0 0 1 0 0) " stroke-linecap="round"/>
	<polygon points="53.12,33.66 53.09,32.23 52.23,33.37 50.85,32.95 51.67,34.13 50.85,35.31 52.23,34.89 53.09,36.03 53.12,34.6 54.47,34.13 " style="stroke: none; stroke-width: 1; stroke-dasharray: none; stroke-linecap: butt; stroke-linejoin: miter; stroke-miterlimit: 10; fill: rgb(252,209,22); fill-rule: nonzero; opacity: 1;" transform="  matrix(1 0 0 1 0 0) "/>
	<polygon points="30.09,46.59 29.48,45.3 29.15,46.69 27.73,46.87 28.95,47.61 28.69,49.02 29.77,48.08 31.03,48.77 30.47,47.45 31.51,46.47 " style="stroke: none; stroke-width: 1; stroke-dasharray: none; stroke-linecap: butt; stroke-linejoin: miter; stroke-miterlimit: 10; fill: rgb(252,209,22); fill-rule: nonzero; opacity: 1;" transform="  matrix(1 0 0 1 0 0) "/>
	<polygon points="29.15,21.57 29.48,22.96 30.09,21.67 31.51,21.79 30.47,20.81 31.03,19.49 29.77,20.18 28.69,19.24 28.95,20.65 27.73,21.39 " style="stroke: none; stroke-width: 1; stroke-dasharray: none; stroke-linecap: butt; stroke-linejoin: miter; stroke-miterlimit: 10; fill: rgb(252,209,22); fill-rule: nonzero; opacity: 1;" transform="  matrix(1 0 0 1 0 0) "/>
</g>
</svg>